<svg width="15" height="15" viewBox="0 0 15 15" fill="none" xmlns="http://www.w3.org/2000/svg">
<path d="M13.7222 0.5H1.27778C1.0715 0.5 0.873667 0.577632 0.727806 0.715818C0.581944 0.854003 0.5 1.04142 0.5 1.23685V3.14528C0.5 3.53066 0.665667 3.9094 0.953444 4.18203L5.16667 8.17353V13.7633C5.16682 13.8888 5.20079 14.0122 5.26537 14.1218C5.32994 14.2315 5.42298 14.3237 5.53568 14.3897C5.64837 14.4557 5.777 14.4934 5.90937 14.4992C6.04174 14.505 6.17348 14.4787 6.29211 14.4227L9.40322 12.949C9.66689 12.8238 9.83333 12.5688 9.83333 12.2896V8.17353L14.0466 4.18203C14.3343 3.9094 14.5 3.53066 14.5 3.14528V1.23685C14.5 1.04142 14.4181 0.854003 14.2722 0.715818C14.1263 0.577632 13.9285 0.5 13.7222 0.5V0.5ZM8.50567 7.34753C8.4333 7.41584 8.37591 7.49703 8.3368 7.58644C8.29769 7.67585 8.27763 7.7717 8.27778 7.86848V11.8342L6.72222 12.571V7.86848C6.72237 7.7717 6.70231 7.67585 6.6632 7.58644C6.62409 7.49703 6.5667 7.41584 6.49433 7.34753L2.05556 3.14528V1.9737H12.9452L12.9468 3.14013L8.50567 7.34753V7.34753Z" fill="#97A0A8"/>
</svg>
