<svg width="19" height="19" viewBox="0 0 19 19" fill="none" xmlns="http://www.w3.org/2000/svg">
<path d="M16.625 3.48608H13.4707V2.64587C13.4707 1.95842 13.2419 1.37919 12.7842 0.908157C12.3265 0.437129 11.7637 0.201614 11.0957 0.201614H7.9043C7.23633 0.201614 6.6735 0.437129 6.21582 0.908157C5.75814 1.37919 5.5293 1.95842 5.5293 2.64587V3.48608H2.375C1.70703 3.48608 1.14421 3.71523 0.686523 4.17353C0.228841 4.63183 0 5.21743 0 5.93034V9.17661C0 9.7113 0.259766 9.97864 0.779297 9.97864V16.5094C0.779297 16.9422 0.940104 17.3241 1.26172 17.6551C1.58333 17.9861 1.95443 18.1516 2.375 18.1516H16.625C17.0456 18.1516 17.4167 17.9861 17.7383 17.6551C18.0599 17.3241 18.2207 16.9422 18.2207 16.5094V9.97864C18.7402 9.97864 19 9.7113 19 9.17661V5.93034C19 5.21743 18.7712 4.63183 18.3135 4.17353C17.8558 3.71523 17.293 3.48608 16.625 3.48608ZM7.125 2.64587C7.125 2.41672 7.19922 2.22576 7.34766 2.073C7.49609 1.92023 7.68164 1.84385 7.9043 1.84385H11.0957C11.3184 1.84385 11.5039 1.92023 11.6523 2.073C11.8008 2.22576 11.875 2.41672 11.875 2.64587V3.48608H7.125V2.64587ZM2.375 16.5094V9.97864H7.125V12.4229C7.125 12.8812 7.27962 13.2695 7.58887 13.5877C7.89811 13.906 8.27539 14.0651 8.7207 14.0651H10.2793C10.7246 14.0651 11.1019 13.906 11.4111 13.5877C11.7204 13.2695 11.875 12.8812 11.875 12.4229V9.97864H16.625V16.5094H2.375ZM8.7207 12.4229V9.97864H10.2793V12.4229H8.7207ZM17.4043 8.37459H1.5957V5.93034C1.5957 5.3702 1.85547 5.09013 2.375 5.09013H16.625C17.1445 5.09013 17.4043 5.3702 17.4043 5.93034V8.37459Z" fill="white"/>
</svg>
