<svg width="22" height="22" viewBox="0 0 22 22" fill="none" xmlns="http://www.w3.org/2000/svg">
<path d="M19.25 4.03632H15.5977V3.06051C15.5977 2.26212 15.3327 1.58941 14.8027 1.04237C14.2728 0.495323 13.6211 0.221802 12.8477 0.221802H9.15234C8.37891 0.221802 7.72721 0.495323 7.19727 1.04237C6.66732 1.58941 6.40234 2.26212 6.40234 3.06051V4.03632H2.75C1.97656 4.03632 1.32487 4.30245 0.794922 4.83471C0.264974 5.36696 0 6.04707 0 6.87503V10.6452C0 11.2662 0.300781 11.5766 0.902344 11.5766V19.1613C0.902344 19.664 1.08854 20.1076 1.46094 20.492C1.83333 20.8764 2.26302 21.0686 2.75 21.0686H19.25C19.737 21.0686 20.1667 20.8764 20.5391 20.492C20.9115 20.1076 21.0977 19.664 21.0977 19.1613V11.5766C21.6992 11.5766 22 11.2662 22 10.6452V6.87503C22 6.04707 21.735 5.36696 21.2051 4.83471C20.6751 4.30245 20.0234 4.03632 19.25 4.03632ZM8.25 3.06051C8.25 2.79438 8.33594 2.57261 8.50781 2.39519C8.67969 2.21777 8.89453 2.12906 9.15234 2.12906H12.8477C13.1055 2.12906 13.3203 2.21777 13.4922 2.39519C13.6641 2.57261 13.75 2.79438 13.75 3.06051V4.03632H8.25V3.06051ZM2.75 19.1613V11.5766H8.25V14.4154C8.25 14.9476 8.42904 15.3986 8.78711 15.7682C9.14518 16.1378 9.58203 16.3226 10.0977 16.3226H11.9023C12.418 16.3226 12.8548 16.1378 13.2129 15.7682C13.571 15.3986 13.75 14.9476 13.75 14.4154V11.5766H19.25V19.1613H2.75ZM10.0977 14.4154V11.5766H11.9023V14.4154H10.0977ZM20.1523 9.71374H1.84766V6.87503C1.84766 6.22449 2.14844 5.89922 2.75 5.89922H19.25C19.8516 5.89922 20.1523 6.22449 20.1523 6.87503V9.71374Z" fill="#105E55"/>
</svg>
